<svg xmlns="http://www.w3.org/2000/svg" viewBox="0 0 96 96">
  <defs>
    <linearGradient id="bg" x1="10" y1="8" x2="86" y2="88" gradientUnits="userSpaceOnUse">
      <stop offset="0" stop-color="#010b24"/>
      <stop offset="0.54" stop-color="#061a48"/>
      <stop offset="1" stop-color="#001735"/>
    </linearGradient>
    <linearGradient id="cyan" x1="20" y1="26" x2="76" y2="72" gradientUnits="userSpaceOnUse">
      <stop offset="0" stop-color="#2ff6d5"/>
      <stop offset="1" stop-color="#0968ff"/>
    </linearGradient>
  </defs>
  <rect width="96" height="96" rx="17" fill="url(#bg)"/>
  <ellipse cx="48" cy="30" rx="24" ry="7.4" fill="#ffffff"/>
  <path d="M24 30v34c0 5.2 10.7 9.4 24 9.4s24-4.2 24-9.4V30" fill="#ffffff"/>
  <ellipse cx="48" cy="30" rx="24" ry="7.4" fill="none" stroke="#c7d6f5" stroke-width="1.2" opacity="0.7"/>
  <path d="M24 47.2c5.6 4.2 15 6.3 24 6.3s18.4-2.1 24-6.3v11.2c-5.6 4.2-15 6.3-24 6.3s-18.4-2.1-24-6.3z" fill="url(#cyan)"/>
  <path d="M24 47.2c5.6 4.2 15 6.3 24 6.3s18.4-2.1 24-6.3" fill="none" stroke="#061a48" stroke-width="2" opacity="0.55"/>
  <path d="M30 53h9l3.6-9.5 6.4 18 4.4-11H66" fill="none" stroke="#061a48" stroke-width="4.2" stroke-linecap="round" stroke-linejoin="round"/>
</svg>
